<?xml version="1.0" encoding="UTF-8" standalone="no"?>
<svg
   id="Filled"
   viewBox="0 0 24 24"
   width="512"
   height="512"
   version="1.1"
   sodipodi:docname="envelope.svg"
   inkscape:version="1.4 (86a8ad7, 2024-10-11)"
   xmlns:inkscape="http://www.inkscape.org/namespaces/inkscape"
   xmlns:sodipodi="http://sodipodi.sourceforge.net/DTD/sodipodi-0.dtd"
   xmlns:xlink="http://www.w3.org/1999/xlink"
   xmlns="http://www.w3.org/2000/svg"
   xmlns:svg="http://www.w3.org/2000/svg">
  <defs
     id="defs2">
    <linearGradient
       id="linearGradient3"
       inkscape:collect="always">
      <stop
         style="stop-color:#a55ffc;stop-opacity:1;"
         offset="0.1163859"
         id="stop3" />
      <stop
         style="stop-color:#cba7fd;stop-opacity:1;"
         offset="1"
         id="stop4" />
    </linearGradient>
    <linearGradient
       inkscape:collect="always"
       xlink:href="#linearGradient3"
       id="linearGradient4"
       x1="12"
       y1="2.2709999"
       x2="12"
       y2="26.271"
       gradientUnits="userSpaceOnUse" />
  </defs>
  <sodipodi:namedview
     id="namedview2"
     pagecolor="#ffffff"
     bordercolor="#000000"
     borderopacity="0.25"
     inkscape:showpageshadow="2"
     inkscape:pageopacity="0.0"
     inkscape:pagecheckerboard="0"
     inkscape:deskcolor="#d1d1d1"
     inkscape:zoom="0.66015624"
     inkscape:cx="315.07693"
     inkscape:cy="287.05326"
     inkscape:window-width="1366"
     inkscape:window-height="697"
     inkscape:window-x="-8"
     inkscape:window-y="-8"
     inkscape:window-maximized="1"
     inkscape:current-layer="Filled" />
  <path
     id="path1"
     style="fill:url(#linearGradient4);fill-opacity:1"
     d="M 4.9999695 1.0000305 A 4.986 4.986 0 0 0 0.74395752 3.4109802 L 9.8779907 12.546021 A 3.007 3.007 0 0 0 14.122009 12.546021 L 23.256042 3.4109802 A 4.986 4.986 0 0 0 19.000031 1.0000305 L 4.9999695 1.0000305 z M 0.045959473 5.5419617 C 0.031959473 5.6999617 0 5.843 0 6 L 0 18 A 5.006 5.006 0 0 0 4.9999695 22.999969 L 19.000031 22.999969 A 5.006 5.006 0 0 0 24 18 L 24 6 C 24 5.843 23.968041 5.6999617 23.954041 5.5419617 L 15.536041 13.959961 A 5.007 5.007 0 0 1 8.4639587 13.959961 L 0.045959473 5.5419617 z " />
</svg>
