<?xml version="1.0" encoding="UTF-8" standalone="no"?>
<!-- Created with Inkscape (http://www.inkscape.org/) -->

<svg
   width="512mm"
   height="512mm"
   viewBox="0 0 24 24"
   version="1.1"
   id="svg1"
   inkscape:version="1.4 (86a8ad7, 2024-10-11)"
   xmlns:inkscape="http://www.inkscape.org/namespaces/inkscape"
   xmlns:sodipodi="http://sodipodi.sourceforge.net/DTD/sodipodi-0.dtd"
   xmlns:xlink="http://www.w3.org/1999/xlink"
   xmlns="http://www.w3.org/2000/svg"
   xmlns:svg="http://www.w3.org/2000/svg">
  <sodipodi:namedview
     id="namedview1"
     pagecolor="#ffffff"
     bordercolor="#000000"
     borderopacity="0.25"
     inkscape:showpageshadow="2"
     inkscape:pageopacity="0.0"
     inkscape:pagecheckerboard="0"
     inkscape:deskcolor="#d1d1d1"
     inkscape:document-units="mm"
     inkscape:lockguides="true"
     inkscape:zoom="0.25"
     inkscape:cx="983.99999"
     inkscape:cy="818"
     inkscape:window-width="1366"
     inkscape:window-height="697"
     inkscape:window-x="-8"
     inkscape:window-y="-8"
     inkscape:window-maximized="1"
     inkscape:current-layer="layer1" />
  <defs
     id="defs1">
    <linearGradient
       id="linearGradient16"
       inkscape:collect="always">
      <stop
         style="stop-color:#ab68fc;stop-opacity:1;"
         offset="0.03522209"
         id="stop16" />
      <stop
         style="stop-color:#3e0f73;stop-opacity:1;"
         offset="1"
         id="stop17" />
    </linearGradient>
    <linearGradient
       id="linearGradient14"
       inkscape:collect="always">
      <stop
         style="stop-color:#ab68fc;stop-opacity:1;"
         offset="0.28330782"
         id="stop14" />
      <stop
         style="stop-color:#3e0f73;stop-opacity:1;"
         offset="0.8943339"
         id="stop15" />
    </linearGradient>
    <linearGradient
       inkscape:collect="always"
       xlink:href="#linearGradient14"
       id="linearGradient15"
       x1="11.927037"
       y1="0.99688566"
       x2="11.927037"
       y2="23.141991"
       gradientUnits="userSpaceOnUse" />
    <linearGradient
       inkscape:collect="always"
       xlink:href="#linearGradient16"
       id="linearGradient17"
       x1="11.888418"
       y1="3.8476489"
       x2="11.888418"
       y2="20.292305"
       gradientUnits="userSpaceOnUse" />
  </defs>
  <g
     inkscape:label="Capa 1"
     inkscape:groupmode="layer"
     id="layer1">
    <path
       id="path1"
       style="fill:url(#linearGradient15);stroke-width:0.0124023;fill-opacity:1"
       d="M 11.330001 1.0129953 A 11.072556 11.072556 0 0 0 9.6815067 1.2269842 A 11.072556 11.072556 0 0 0 0.95694253 13.572257 A 11.072556 11.072556 0 0 0 12.680185 23.116345 A 11.072556 11.072556 0 0 0 22.999589 12.069442 L 22.591644 9.0916202 A 11.072556 11.072556 0 0 0 11.330001 1.0129953 z M 11.438715 3.0262929 A 9.0563192 9.0563192 0 0 1 20.649684 9.6338594 L 20.983336 12.069442 A 9.0563192 9.0563192 0 0 1 12.543032 21.104792 A 9.0563192 9.0563192 0 0 1 2.9545192 13.298607 A 9.0563192 9.0563192 0 0 1 10.090396 3.2013064 A 9.0563192 9.0563192 0 0 1 11.438715 3.0262929 z " />
    <path
       id="path2"
       style="fill:url(#linearGradient17);fill-opacity:1;stroke-width:0.00925588"
       d="m 11.483824,3.8181264 a 8.2633118,8.2633118 0 0 0 -1.230241,0.1596907 8.2633118,8.2633118 0 0 0 -6.5110294,9.2131289 8.2633118,8.2633118 0 0 0 8.7489094,7.122628 8.2633118,8.2633118 0 0 0 7.608897,-7.33292 c 1.5e-5,-4e-5 1.2e-5,-9e-5 2.5e-5,-1.29e-4 0.04148,-0.576604 -0.04939,-0.847397 -0.134094,-0.973692 -0.08056,-0.09259 -0.179385,-0.149129 -0.287772,-0.149129 h -0.550745 c -0.268488,0 -0.484622,0.335348 -0.484622,0.751889 0,0.008 2.23e-4,0.01607 3.84e-4,0.02408 A 6.7586195,6.7586195 0 0 1 12.38908,18.81237 6.7586195,6.7586195 0 0 1 5.2332995,12.98672 6.7586195,6.7586195 0 0 1 10.558728,5.4512175 a 6.7586195,6.7586195 0 0 1 1.006226,-0.1306 6.7586195,6.7586195 0 0 1 6.072048,3.1823772 c 0.03153,0.054571 0.101476,0.1839238 0.129263,0.3031913 -0.0155,0.2357423 -0.307971,0.1905802 -0.307971,0.1905802 0,0 -0.199852,0.057566 -0.481899,-0.3552307 A 6.112375,6.112375 0 0 0 11.599802,5.9659323 6.112375,6.112375 0 0 0 10.68979,6.0840427 6.112375,6.112375 0 0 0 5.8735783,12.89901 a 6.112375,6.112375 0 0 0 6.4715567,5.268608 6.112375,6.112375 0 0 0 5.660307,-5.664186 c -0.02405,-0.225207 -0.148793,-0.428781 -0.553726,-0.605381 -0.09138,-0.01129 -0.187911,-0.01996 -0.281066,-0.02678 h -0.269062 -3.907899 -1.494343 c -0.231718,0 -0.41827,0.267684 -0.41827,0.60019 0,0.332506 0.186552,0.600189 0.41827,0.600189 h 5.045905 c 0.136098,0.07904 0.174742,0.21906 0.172901,0.357209 a 4.9993531,4.9993531 0 0 1 -4.44875,3.628324 4.9993531,4.9993531 0 0 1 -5.2931255,-4.309231 4.9993531,4.9993531 0 0 1 3.9391985,-5.5740112 4.9993531,4.9993531 0 0 1 0.744307,-0.096626 h 5.1e-5 a 4.9993531,4.9993531 0 0 1 4.287953,2.0516678 c 0.391122,0.3277268 1.099283,0.8016401 1.867333,0.7308917 1.017103,-0.09369 1.153423,-1.184396 1.173395,-1.4609356 0.06562,-0.3818514 -0.163526,-0.8117408 -0.265107,-0.9790883 -0.0079,-0.01778 -0.01301,-0.034732 -0.02133,-0.052502 a 8.2633118,8.2633118 0 0 0 -7.218253,-3.549222 z" />
  </g>
</svg>
