<?xml version="1.0" encoding="UTF-8" standalone="no"?>
<svg
   id="Layer_1"
   data-name="Layer 1"
   viewBox="0 0 24 24"
   version="1.1"
   sodipodi:docname="skill.svg"
   inkscape:version="1.4 (86a8ad7, 2024-10-11)"
   xmlns:inkscape="http://www.inkscape.org/namespaces/inkscape"
   xmlns:sodipodi="http://sodipodi.sourceforge.net/DTD/sodipodi-0.dtd"
   xmlns="http://www.w3.org/2000/svg"
   xmlns:svg="http://www.w3.org/2000/svg">
  <defs
     id="defs1" />
  <sodipodi:namedview
     id="namedview1"
     pagecolor="#ffffff"
     bordercolor="#000000"
     borderopacity="0.25"
     inkscape:showpageshadow="2"
     inkscape:pageopacity="0.0"
     inkscape:pagecheckerboard="0"
     inkscape:deskcolor="#d1d1d1"
     inkscape:zoom="9.9584205"
     inkscape:cx="9.9413356"
     inkscape:cy="11.296972"
     inkscape:window-width="1366"
     inkscape:window-height="697"
     inkscape:window-x="-8"
     inkscape:window-y="-8"
     inkscape:window-maximized="1"
     inkscape:current-layer="Layer_1" />
  <path
     d="m2.5,2.5c0-1.381,1.119-2.5,2.5-2.5s2.5,1.119,2.5,2.5-1.119,2.5-2.5,2.5-2.5-1.119-2.5-2.5Zm11,1c-.828,0-1.5.672-1.5,1.5s.672,1.5,1.5,1.5,1.5-.672,1.5-1.5-.672-1.5-1.5-1.5Zm0,7c-.828,0-1.5.672-1.5,1.5s.672,1.5,1.5,1.5,1.5-.672,1.5-1.5-.672-1.5-1.5-1.5Zm0,7c-.828,0-1.5.672-1.5,1.5s.672,1.5,1.5,1.5,1.5-.672,1.5-1.5-.672-1.5-1.5-1.5Zm-3.5-7.5v3c0,1.474-.81,2.75-2,3.444v6.556c0,.552-.448,1-1,1s-1-.448-1-1v-6h-2v6c0,.552-.448,1-1,1s-1-.448-1-1v-6.556c-1.19-.694-2-1.97-2-3.444v-3c0-2.206,1.794-4,4-4h2c2.206,0,4,1.794,4,4Zm-2,0c0-1.103-.897-2-2-2h-2c-1.103,0-2,.897-2,2v3c0,1.103.897,2,2,2h2c1.103,0,2-.897,2-2v-3Zm10-4h5c.553,0,1-.448,1-1s-.447-1-1-1h-5c-.553,0-1,.448-1,1s.447,1,1,1Zm5,5h-5c-.553,0-1,.448-1,1s.447,1,1,1h5c.553,0,1-.448,1-1s-.447-1-1-1Zm0,7h-5c-.553,0-1,.448-1,1s.447,1,1,1h5c.553,0,1-.448,1-1s-.447-1-1-1Z"
     id="path1"
     style="fill:#ffffff;fill-opacity:1" />
</svg>
